<svg xmlns="http://www.w3.org/2000/svg" xmlns:xlink="http://www.w3.org/1999/xlink" viewBox="0,0,256,256" width="30px" height="30px"><g transform="translate(-46.08,-46.08) scale(1.36,1.36)"><g fill="#2d76f3" fill-rule="nonzero" stroke="none" stroke-width="1" stroke-linecap="butt" stroke-linejoin="miter" stroke-miterlimit="10" stroke-dasharray="" stroke-dashoffset="0" font-family="none" font-weight="none" font-size="none" text-anchor="none" style="mix-blend-mode: normal"><g transform="scale(8.53333,8.53333)"><path d="M6,4c-1.105,0 -2,0.895 -2,2v18c0,1.105 0.895,2 2,2h18c1.105,0 2,-0.895 2,-2v-18c0,-1.105 -0.895,-2 -2,-2zM14.87305,8c2.319,0 3.46484,1.4668 3.46484,1.4668v-1.25h1.85156v8.49805c0,1.383 0.214,5.28516 -5.125,5.28516c-5.172,0 -4.82812,-2.81909 -4.82812,-3.12109l1.91211,0.2168c0.26,1.227 1.30401,1.56055 2.91602,1.56055c3.301,0 3.10547,-2.50592 3.10547,-3.91992c0,0 -1.07384,1.2793 -3.21484,1.2793c-2.141,0 -5.14453,-1.09295 -5.14453,-5.00195c0,-3.656 2.7435,-5.01367 5.0625,-5.01367zM15.08984,9.36523c-2.164,0 -3.24219,1.63248 -3.24219,3.64648c0,2.014 0.97719,3.64648 3.24219,3.64648c2.265,0 3.24023,-1.63248 3.24023,-3.64648c0,-2.014 -1.07623,-3.64648 -3.24023,-3.64648z"></path></g></g></g></svg>